<?xml version="1.0" encoding="UTF-8" standalone="no"?>
<svg
   xmlns:dc="http://purl.org/dc/elements/1.1/"
   xmlns:cc="http://creativecommons.org/ns#"
   xmlns:rdf="http://www.w3.org/1999/02/22-rdf-syntax-ns#"
   xmlns:svg="http://www.w3.org/2000/svg"
   xmlns="http://www.w3.org/2000/svg"
   xmlns:sodipodi="http://sodipodi.sourceforge.net/DTD/sodipodi-0.dtd"
   xmlns:inkscape="http://www.inkscape.org/namespaces/inkscape"
   width="210mm"
   height="297mm"
   viewBox="0 0 210 297"
   version="1.1"
   id="svg8"
   inkscape:version="1.0 (4035a4fb49, 2020-05-01)"
   sodipodi:docname="ceres.svg">
  <defs
     id="defs2" />
  <sodipodi:namedview
     id="base"
     pagecolor="#ffffff"
     bordercolor="#666666"
     borderopacity="1.0"
     inkscape:pageopacity="0.0"
     inkscape:pageshadow="2"
     inkscape:zoom="1.979899"
     inkscape:cx="449.86723"
     inkscape:cy="670.27948"
     inkscape:document-units="mm"
     inkscape:current-layer="layer1"
     inkscape:document-rotation="0"
     showgrid="false"
     inkscape:window-width="2560"
     inkscape:window-height="1373"
     inkscape:window-x="-9"
     inkscape:window-y="-9"
     inkscape:window-maximized="1" />
  <metadata
     id="metadata5">
    <rdf:RDF>
      <cc:Work
         rdf:about="">
        <dc:format>image/svg+xml</dc:format>
        <dc:type
           rdf:resource="http://purl.org/dc/dcmitype/StillImage" />
        <dc:title />
      </cc:Work>
    </rdf:RDF>
  </metadata>
  <g
     inkscape:label="Layer 1"
     inkscape:groupmode="layer"
     id="layer1">
    <circle
       style="opacity:1;fill:#0f0f0f;stroke-width:26.4583;fill-opacity:1"
       id="path846"
       cx="105.07811"
       cy="151.18727"
       r="49.703503" />
    <circle
       r="49.703629"
       cy="151.18727"
       cx="105.07811"
       id="path934-3"
       style="opacity:1;fill:#939aa5;fill-opacity:0.454902;fill-rule:nonzero;stroke:none;stroke-width:0;stroke-miterlimit:4;stroke-dasharray:none;stroke-dashoffset:0;stroke-opacity:1" />
    <ellipse
       ry="44.675407"
       rx="42.551212"
       cy="149.9955"
       cx="104.23431"
       id="path1052-0"
       style="opacity:1;fill:#a5afb5;fill-opacity:0.678431;fill-rule:nonzero;stroke:none;stroke-width:0.0999997;stroke-miterlimit:4;stroke-dasharray:none;stroke-dashoffset:0;stroke-opacity:1" />
    <path
       inkscape:connector-curvature="0"
       id="path1006-7"
       d="m 138.52329,133.94948 a 5.6001506,5.4070422 75 0 0 -5.43879,-4.1809 33.021576,33.697459 75 0 0 -5.18046,-5.51939 8.3036708,8.400226 75 0 0 1.94036,-7.76684 8.3036708,8.400226 75 0 0 -10.26307,-5.84617 8.3036708,8.400226 75 0 0 -6.07392,6.45231 33.021576,33.697459 75 0 0 -16.295763,0.34126 33.021576,33.697459 75 0 0 -4.142852,1.44052 8.1105627,7.9174541 75 0 0 -8.055505,-2.57042 8.1105627,7.9174541 75 0 0 -5.548938,9.88328 8.1105627,7.9174541 75 0 0 0.777075,1.89627 33.021576,33.697459 75 0 0 -7.52023,27.68787 12.358953,12.358953 0 0 0 -5.966526,14.0054 12.358953,12.358953 0 0 0 15.137231,8.73943 12.358953,12.358953 0 0 0 4.298744,-2.12518 33.021576,33.697459 75 0 0 28.115004,4.83528 33.021576,33.697459 75 0 0 6.75161,-2.64203 6.2760304,6.6622483 75 0 0 5.82195,1.07217 6.2760304,6.6622483 75 0 0 4.81119,-7.78629 6.2760304,6.6622483 75 0 0 -0.48193,-1.21301 33.021576,33.697459 75 0 0 6.32651,-10.9081 3.8621727,4.0552811 75 0 0 2.31324,0.0367 3.8621727,4.0552811 75 0 0 2.9178,-4.78024 3.8621727,4.0552811 75 0 0 -3.54913,-2.81254 33.021576,33.697459 75 0 0 -0.90894,-11.58622 33.021576,33.697459 75 0 0 -0.59384,-1.93664 5.6001506,5.4070422 75 0 0 0.81083,-4.7189 z"
       style="opacity:1;fill:#b8c0c6;fill-opacity:0.811765;fill-rule:nonzero;stroke:none;stroke-width:0.999997;stroke-miterlimit:4;stroke-dasharray:none;stroke-dashoffset:0;stroke-opacity:1" />
    <ellipse
       transform="rotate(75)"
       ry="9.9680367"
       rx="10.309405"
       cy="-32.049934"
       cx="182.09923"
       id="path1056-69"
       style="opacity:1;fill:#b8c2c7;fill-opacity:0.878431;fill-rule:nonzero;stroke:none;stroke-width:0.107605;stroke-miterlimit:4;stroke-dasharray:none;stroke-dashoffset:0;stroke-opacity:1" />
    <circle
       transform="rotate(75)"
       r="6.1446791"
       cy="-51.84943"
       cx="141.33943"
       id="path1058-3"
       style="opacity:1;fill:#b8c2c7;fill-opacity:0.862745;fill-rule:nonzero;stroke:none;stroke-width:0.0999997;stroke-miterlimit:4;stroke-dasharray:none;stroke-dashoffset:0;stroke-opacity:1" />
    <ellipse
       transform="rotate(75)"
       ry="6.4177761"
       rx="6.6908731"
       cy="-87.625107"
       cx="145.70895"
       id="path1060-2"
       style="opacity:1;fill:#b8c2c9;fill-opacity:0.862745;fill-rule:nonzero;stroke:none;stroke-width:0.0999997;stroke-miterlimit:4;stroke-dasharray:none;stroke-dashoffset:0;stroke-opacity:1" />
    <ellipse
       transform="rotate(75)"
       ry="4.0698657"
       rx="4.1553488"
       cy="-94.426086"
       cx="165.15767"
       id="path1062-8"
       style="opacity:1;fill:#b8c2c7;fill-opacity:0.862745;fill-rule:nonzero;stroke:none;stroke-width:0.0999997;stroke-miterlimit:4;stroke-dasharray:none;stroke-dashoffset:0;stroke-opacity:1" />
    <ellipse
       transform="rotate(75)"
       ry="3.6868076"
       rx="3.5502591"
       cy="-93.496796"
       cx="186.53688"
       id="path1064-9"
       style="opacity:1;fill:#b8c2c7;fill-opacity:0.862745;fill-rule:nonzero;stroke:none;stroke-width:0.0999997;stroke-miterlimit:4;stroke-dasharray:none;stroke-dashoffset:0;stroke-opacity:1" />
    <circle
       transform="rotate(75)"
       r="4.9840183"
       cy="-76.360092"
       cx="200.39647"
       id="path1066-24"
       style="opacity:1;fill:#b8c2c7;fill-opacity:0.878431;fill-rule:nonzero;stroke:none;stroke-width:0.0999997;stroke-miterlimit:4;stroke-dasharray:none;stroke-dashoffset:0;stroke-opacity:1" />
    <ellipse
       transform="rotate(75)"
       ry="13.5543"
       rx="14.12381"
       cy="-62.458038"
       cx="170.99258"
       id="path1068-2"
       style="opacity:1;fill:#b8c2c7;fill-opacity:0.862745;fill-rule:nonzero;stroke:none;stroke-width:0.0999997;stroke-miterlimit:4;stroke-dasharray:none;stroke-dashoffset:0;stroke-opacity:1" />
    <path
       id="circle877-7"
       style="opacity:1;fill:#919ba2;fill-opacity:0.647059;fill-rule:nonzero;stroke:none;stroke-width:0;stroke-miterlimit:4;stroke-dasharray:none;stroke-dashoffset:0;stroke-opacity:1"
       d="m 125.6196,105.92725 a 59.552165,59.552165 0 0 1 0.96777,10.6935 59.552165,59.552165 0 0 1 -59.551739,59.55242 59.552165,59.552165 0 0 1 -5.047992,-0.21527 49.703625,49.703625 0 0 0 43.090351,24.93245 49.703625,49.703625 0 0 0 49.70364,-49.70364 49.703625,49.703625 0 0 0 -29.16203,-45.25977 z" />
    <circle
       style="opacity:0;fill:#939aa5;fill-opacity:0.454902;fill-rule:nonzero;stroke:none;stroke-width:0;stroke-miterlimit:4;stroke-dasharray:none;stroke-dashoffset:0;stroke-opacity:1"
       id="circle844"
       cx="105.07811"
       cy="151.18727"
       r="49.703629" />
  </g>
</svg>
