<?xml version="1.0" encoding="UTF-8" standalone="no"?>
<svg
   xmlns:dc="http://purl.org/dc/elements/1.1/"
   xmlns:cc="http://creativecommons.org/ns#"
   xmlns:rdf="http://www.w3.org/1999/02/22-rdf-syntax-ns#"
   xmlns:svg="http://www.w3.org/2000/svg"
   xmlns="http://www.w3.org/2000/svg"
   xmlns:sodipodi="http://sodipodi.sourceforge.net/DTD/sodipodi-0.dtd"
   xmlns:inkscape="http://www.inkscape.org/namespaces/inkscape"
   width="210mm"
   height="297mm"
   viewBox="0 0 210 297"
   version="1.1"
   id="svg8"
   inkscape:version="1.0 (4035a4fb49, 2020-05-01)"
   sodipodi:docname="moon.svg">
  <defs
     id="defs2" />
  <sodipodi:namedview
     id="base"
     pagecolor="#ffffff"
     bordercolor="#666666"
     borderopacity="1.0"
     inkscape:pageopacity="0.0"
     inkscape:pageshadow="2"
     inkscape:zoom="1.979899"
     inkscape:cx="434.31669"
     inkscape:cy="659.3481"
     inkscape:document-units="mm"
     inkscape:current-layer="layer1"
     inkscape:document-rotation="0"
     showgrid="false"
     inkscape:window-width="2560"
     inkscape:window-height="1373"
     inkscape:window-x="-9"
     inkscape:window-y="-9"
     inkscape:window-maximized="1" />
  <metadata
     id="metadata5">
    <rdf:RDF>
      <cc:Work
         rdf:about="">
        <dc:format>image/svg+xml</dc:format>
        <dc:type
           rdf:resource="http://purl.org/dc/dcmitype/StillImage" />
        <dc:title />
      </cc:Work>
    </rdf:RDF>
  </metadata>
  <g
     inkscape:label="Layer 1"
     inkscape:groupmode="layer"
     id="layer1">
    <circle
       style="opacity:1;fill:#939ba3;fill-opacity:1;fill-rule:nonzero;stroke:none;stroke-width:0;stroke-miterlimit:4;stroke-dasharray:none;stroke-dashoffset:0;stroke-opacity:1"
       id="path934"
       cx="106.58985"
       cy="154.21098"
       r="52.538349" />
    <ellipse
       style="opacity:1;fill:#b7c4c8;fill-opacity:1;fill-rule:nonzero;stroke:none;stroke-width:0.1;stroke-miterlimit:4;stroke-dasharray:none;stroke-dashoffset:0;stroke-opacity:1"
       id="path1052"
       cx="105.69793"
       cy="152.95113"
       rx="44.978016"
       ry="47.223358" />
    <path
       style="opacity:1;fill:#d2d7dc;fill-opacity:1;fill-rule:nonzero;stroke:none;stroke-width:0.999999;stroke-miterlimit:4;stroke-dasharray:none;stroke-dashoffset:0;stroke-opacity:1"
       d="m 102.56325,112.90523 a 5.9195415,5.7154195 0 0 0 -5.756668,4.40924 34.90488,35.619311 0 0 0 -7.052748,3.77935 8.7772504,8.8793122 0 0 0 -7.399212,-4.10614 8.7772504,8.8793122 0 0 0 -8.776647,8.87926 8.7772504,8.8793122 0 0 0 4.926233,7.96681 34.90488,35.619311 0 0 0 -4.110083,16.73159 34.90488,35.619311 0 0 0 0.337829,4.62394 8.5731288,8.3690068 0 0 0 -4.828355,7.52162 8.5731288,8.3690068 0 0 0 8.573006,8.36934 8.5731288,8.3690068 0 0 0 2.148577,-0.27388 34.90488,35.619311 0 0 0 26.212308,15.25315 13.063815,13.063815 0 0 0 12.66733,9.92356 13.063815,13.063815 0 0 0 13.06434,-13.06434 13.063815,13.063815 0 0 0 -0.99378,-4.97045 34.90488,35.619311 0 0 0 12.62861,-27.38294 34.90488,35.619311 0 0 0 -0.85091,-7.61632 6.6339685,7.0422128 0 0 0 2.68767,-5.65088 6.6339685,7.0422128 0 0 0 -6.63355,-7.04247 6.6339685,7.0422128 0 0 0 -1.37028,0.16023 34.90488,35.619311 0 0 0 -9.40657,-9.44363 4.0824422,4.2865641 0 0 0 0.6725,-2.35144 4.0824422,4.2865641 0 0 0 -4.08244,-4.2869 4.0824422,4.2865641 0 0 0 -3.84253,2.85425 34.90488,35.619311 0 0 0 -12.07844,-2.24172 34.90488,35.619311 0 0 0 -2.1399,0.0773 5.9195415,5.7154195 0 0 0 -4.59629,-2.11858 z"
       id="path1006"
       inkscape:connector-curvature="0" />
    <ellipse
       style="opacity:1;fill:#b7c4c8;fill-opacity:1;fill-rule:nonzero;stroke:none;stroke-width:0.107605;stroke-miterlimit:4;stroke-dasharray:none;stroke-dashoffset:0;stroke-opacity:1"
       id="path1056"
       cx="120.38615"
       cy="183.8159"
       rx="10.897377"
       ry="10.536538" />
    <circle
       style="opacity:1;fill:#b7c4c8;fill-opacity:1;fill-rule:nonzero;stroke:none;stroke-width:0.1;stroke-miterlimit:4;stroke-dasharray:none;stroke-dashoffset:0;stroke-opacity:1"
       id="path1058"
       cx="77.301903"
       cy="162.88716"
       r="6.4951258" />
    <ellipse
       style="opacity:1;fill:#b7c4c8;fill-opacity:1;fill-rule:nonzero;stroke:none;stroke-width:0.1;stroke-miterlimit:4;stroke-dasharray:none;stroke-dashoffset:0;stroke-opacity:1"
       id="path1060"
       cx="81.920555"
       cy="125.07107"
       rx="7.0724707"
       ry="6.7837982" />
    <ellipse
       style="opacity:1;fill:#b7c4c8;fill-opacity:1;fill-rule:nonzero;stroke:none;stroke-width:0.1;stroke-miterlimit:4;stroke-dasharray:none;stroke-dashoffset:0;stroke-opacity:1"
       id="path1062"
       cx="102.47855"
       cy="117.88237"
       rx="4.3923392"
       ry="4.3019805" />
    <ellipse
       style="opacity:1;fill:#b7c4c8;fill-opacity:1;fill-rule:nonzero;stroke:none;stroke-width:0.1;stroke-miterlimit:4;stroke-dasharray:none;stroke-dashoffset:0;stroke-opacity:1"
       id="path1064"
       cx="125.07696"
       cy="118.86463"
       rx="3.7527394"
       ry="3.8970757" />
    <circle
       style="opacity:1;fill:#b7c4c8;fill-opacity:1;fill-rule:nonzero;stroke:none;stroke-width:0.1;stroke-miterlimit:4;stroke-dasharray:none;stroke-dashoffset:0;stroke-opacity:1"
       id="path1066"
       cx="139.72714"
       cy="136.97882"
       r="5.2682691" />
    <ellipse
       style="opacity:1;fill:#b7c4c8;fill-opacity:1;fill-rule:nonzero;stroke:none;stroke-width:0.1;stroke-miterlimit:4;stroke-dasharray:none;stroke-dashoffset:0;stroke-opacity:1"
       id="path1068"
       cx="109.67843"
       cy="149.07286"
       rx="12.655572"
       ry="12.145267" />
    <ellipse
       style="opacity:1;fill:#b7c4c8;fill-opacity:1;fill-rule:nonzero;stroke:none;stroke-width:0.1;stroke-miterlimit:4;stroke-dasharray:none;stroke-dashoffset:0;stroke-opacity:1"
       id="path1070"
       cx="106.31035"
       cy="167.54587"
       rx="5.409236"
       ry="5.5112972" />
    <ellipse
       style="opacity:1;fill:#b7c4c8;fill-opacity:1;fill-rule:nonzero;stroke:none;stroke-width:0.1;stroke-miterlimit:4;stroke-dasharray:none;stroke-dashoffset:0;stroke-opacity:1"
       id="path1072"
       cx="125.19164"
       cy="148.1543"
       rx="2.4494655"
       ry="2.6535873" />
    <ellipse
       style="opacity:1;fill:#b7c4c8;fill-opacity:1;fill-rule:nonzero;stroke:none;stroke-width:0.20357;stroke-miterlimit:4;stroke-dasharray:none;stroke-dashoffset:0;stroke-opacity:1"
       id="path1076"
       cx="87.531151"
       cy="140.90796"
       rx="5.409236"
       ry="5.8174806" />
    <path
       d="m 128.30299,106.36959 a 62.948577,62.948577 0 0 1 1.02298,11.30333 62.948577,62.948577 0 0 1 -62.948138,62.94892 62.948577,62.948577 0 0 1 -5.335926,-0.22732 52.538349,52.538349 0 0 0 45.547964,26.35442 52.538349,52.538349 0 0 0 52.53837,-52.53835 52.538349,52.538349 0 0 0 -30.82525,-47.841 z"
       style="opacity:0.198529;fill:#939ba3;fill-opacity:1;fill-rule:nonzero;stroke:none;stroke-width:0;stroke-miterlimit:4;stroke-dasharray:none;stroke-dashoffset:0;stroke-opacity:1"
       id="circle877" />
  </g>
</svg>
