<?xml version="1.0" encoding="UTF-8" standalone="no"?>
<svg
   xmlns:dc="http://purl.org/dc/elements/1.1/"
   xmlns:cc="http://creativecommons.org/ns#"
   xmlns:rdf="http://www.w3.org/1999/02/22-rdf-syntax-ns#"
   xmlns:svg="http://www.w3.org/2000/svg"
   xmlns="http://www.w3.org/2000/svg"
   xmlns:sodipodi="http://sodipodi.sourceforge.net/DTD/sodipodi-0.dtd"
   xmlns:inkscape="http://www.inkscape.org/namespaces/inkscape"
   width="210mm"
   height="297mm"
   viewBox="0 0 210 297"
   version="1.1"
   id="svg8"
   inkscape:version="1.0 (4035a4fb49, 2020-05-01)"
   sodipodi:docname="pluto.svg">
  <defs
     id="defs2" />
  <sodipodi:namedview
     id="base"
     pagecolor="#ffffff"
     bordercolor="#666666"
     borderopacity="1.0"
     inkscape:pageopacity="0.0"
     inkscape:pageshadow="2"
     inkscape:zoom="1"
     inkscape:cx="212.5805"
     inkscape:cy="602.52986"
     inkscape:document-units="mm"
     inkscape:current-layer="layer1"
     inkscape:document-rotation="0"
     showgrid="false"
     inkscape:window-width="2560"
     inkscape:window-height="1373"
     inkscape:window-x="-9"
     inkscape:window-y="-9"
     inkscape:window-maximized="1" />
  <metadata
     id="metadata5">
    <rdf:RDF>
      <cc:Work
         rdf:about="">
        <dc:format>image/svg+xml</dc:format>
        <dc:type
           rdf:resource="http://purl.org/dc/dcmitype/StillImage" />
        <dc:title />
      </cc:Work>
    </rdf:RDF>
  </metadata>
  <g
     inkscape:label="Layer 1"
     inkscape:groupmode="layer"
     id="layer1">
    <circle
       style="opacity:1;fill:#621617;fill-opacity:1;fill-rule:nonzero;stroke:none;stroke-width:0;stroke-miterlimit:4;stroke-dasharray:none;stroke-dashoffset:0;stroke-opacity:1"
       id="path934-0-1"
       cx="105.34464"
       cy="147.65947"
       r="52.937401" />
    <ellipse
       style="opacity:1;fill:#c53c3c;fill-opacity:1;fill-rule:nonzero;stroke:none;stroke-width:0.1;stroke-miterlimit:4;stroke-dasharray:none;stroke-dashoffset:0;stroke-opacity:1"
       id="path1052-3-5"
       cx="104.2032"
       cy="146.39006"
       rx="45.319641"
       ry="47.582039" />
    <path
       style="opacity:1;fill:#9999b0;fill-opacity:1;fill-rule:nonzero;stroke:none;stroke-width:1;stroke-miterlimit:4;stroke-dasharray:none;stroke-dashoffset:0;stroke-opacity:1"
       d="m 119.01588,109.34841 a 5.964503,5.7588303 30 0 0 -7.24465,0.9473 35.169996,35.889855 30 0 0 -8.05829,-0.25527 8.8439169,8.9467543 30 0 0 -4.387916,-7.31074 8.8439169,8.9467543 30 0 0 -12.131858,3.32642 8.8439169,8.9467543 30 0 0 0.284968,9.43368 35.169996,35.889855 30 0 0 -12.015812,12.5294 35.169996,35.889855 30 0 0 -2.034729,4.20506 8.6382454,8.4325727 30 0 0 -8.002612,4.13089 8.6382454,8.4325727 30 0 0 3.264376,11.62217 8.6382454,8.4325727 30 0 0 2.012848,0.84346 35.169996,35.889855 30 0 0 15.188426,26.51564 13.163041,13.163041 0 0 0 6.054085,15.04111 13.163041,13.163041 0 0 0 17.981764,-4.81821 13.163041,13.163041 0 0 0 1.63694,-4.8379 35.169996,35.889855 30 0 0 24.81521,-17.53216 35.169996,35.889855 30 0 0 3.09457,-7.07474 6.6843561,7.0957013 30 0 0 5.1922,-3.57691 6.6843561,7.0957013 30 0 0 -2.2405,-9.48728 6.6843561,7.0957013 30 0 0 -1.27643,-0.55051 35.169996,35.889855 30 0 0 -3.45051,-12.97954 4.1134501,4.3191226 30 0 0 1.77147,-1.71307 4.1134501,4.3191226 30 0 0 -1.40261,-5.79749 4.1134501,4.3191226 30 0 0 -4.79096,0.55476 35.169996,35.889855 30 0 0 -9.41033,-8.04122 35.169996,35.889855 30 0 0 -1.90622,-1.01063 5.964503,5.7588303 30 0 0 -2.94339,-4.16428 z"
       id="path1006-4-9"
       inkscape:connector-curvature="0" />
    <ellipse
       style="opacity:1;fill:#a65a5a;fill-opacity:1;fill-rule:nonzero;stroke:none;stroke-width:0.107605;stroke-miterlimit:4;stroke-dasharray:none;stroke-dashoffset:0;stroke-opacity:1"
       id="path1056-6-0"
       cx="98.488113"
       cy="180.1852"
       rx="10.980146"
       ry="10.616567" />
    <circle
       style="opacity:1;fill:#c53c3c;fill-opacity:1;fill-rule:nonzero;stroke:none;stroke-width:0.1;stroke-miterlimit:4;stroke-dasharray:none;stroke-dashoffset:0;stroke-opacity:1"
       id="path1058-5-7"
       cx="72.154045"
       cy="140.24719"
       r="6.5444589" />
    <ellipse
       style="opacity:1;fill:#c53c3c;fill-opacity:1;fill-rule:nonzero;stroke:none;stroke-width:0.1;stroke-miterlimit:4;stroke-dasharray:none;stroke-dashoffset:0;stroke-opacity:1"
       id="path1060-4-5"
       cx="95.108826"
       cy="109.33016"
       rx="7.1261892"
       ry="6.8353243" />
    <ellipse
       style="opacity:1;fill:#c53c3c;fill-opacity:1;fill-rule:nonzero;stroke:none;stroke-width:0.1;stroke-miterlimit:4;stroke-dasharray:none;stroke-dashoffset:0;stroke-opacity:1"
       id="path1062-5-9"
       cx="115.93026"
       cy="113.72186"
       rx="4.4257007"
       ry="4.3346558" />
    <ellipse
       style="opacity:1;fill:#c53c3c;fill-opacity:1;fill-rule:nonzero;stroke:none;stroke-width:0.1;stroke-miterlimit:4;stroke-dasharray:none;stroke-dashoffset:0;stroke-opacity:1"
       id="path1064-8-0"
       cx="123.50494"
       cy="133.20119"
       rx="5.1043239"
       ry="5.3006444" />
    <circle
       style="opacity:1;fill:#a65a5a;fill-opacity:1;fill-rule:nonzero;stroke:none;stroke-width:0.1;stroke-miterlimit:4;stroke-dasharray:none;stroke-dashoffset:0;stroke-opacity:1"
       id="path1066-0-4"
       cx="139.59273"
       cy="149.06093"
       r="5.3082833"
       inkscape:transform-center-x="0.4363051"
       inkscape:transform-center-y="-0.0014421935" />
    <ellipse
       style="opacity:1;fill:#bd4b48;fill-opacity:1;fill-rule:nonzero;stroke:none;stroke-width:0.1;stroke-miterlimit:4;stroke-dasharray:none;stroke-dashoffset:0;stroke-opacity:1"
       id="path1068-5-0"
       cx="105.62591"
       cy="144.64439"
       rx="15.226405"
       ry="14.612437" />
    <ellipse
       style="opacity:1;fill:#a65a5a;fill-opacity:1;fill-rule:nonzero;stroke:none;stroke-width:0.1;stroke-miterlimit:4;stroke-dasharray:none;stroke-dashoffset:0;stroke-opacity:1"
       id="path1072-4-0"
       cx="136.07721"
       cy="125.2346"
       rx="2.9403479"
       ry="3.1853762" />
    <path
       d="m 127.01496,99.454716 a 63.426699,63.426699 0 0 1 1.03076,11.389184 63.426699,63.426699 0 0 1 -63.42627,63.42705 63.426699,63.426699 0 0 1 -5.37646,-0.22908 52.937396,52.937396 0 0 0 45.89394,26.55462 52.937396,52.937396 0 0 0 52.93739,-52.9374 52.937396,52.937396 0 0 0 -31.05936,-48.204374 z"
       style="opacity:0.142157;fill:#4d4d5a;fill-opacity:1;fill-rule:nonzero;stroke:none;stroke-width:0;stroke-miterlimit:4;stroke-dasharray:none;stroke-dashoffset:0;stroke-opacity:1"
       id="circle877-3-6" />
    <circle
       style="opacity:0.1;mix-blend-mode:normal;fill:#80b3ff;fill-opacity:1;fill-rule:nonzero;stroke:none;stroke-width:0;stroke-miterlimit:4;stroke-dasharray:none;stroke-dashoffset:0;stroke-opacity:1"
       id="path934-4-3-7"
       cx="105.34464"
       cy="147.65947"
       r="52.937401" />
  </g>
</svg>
